<svg width="32" height="32" viewBox="0 0 32 32" fill="none" xmlns="http://www.w3.org/2000/svg">
<g id="Logo" clip-path="url(#clip0_1626_9148)">
<path id="Vector" d="M32 16C32 2.14925 29.8507 0 16 0C2.14925 0 0 2.14925 0 16C0 29.8507 2.14925 32 16 32C29.8507 32 32 29.8507 32 16Z" fill="url(#paint0_radial_1626_9148)"/>
<path id="Vector_2" d="M25.4853 12.1313C25.4901 11.797 25.5235 11.4627 25.5808 11.1379C25.5808 11.1379 25.5808 11.1379 25.5808 11.1331C25.8578 9.8579 26.7223 8.73074 28.0023 8.1576V7.85193C28.0023 7.56537 27.8017 7.31701 27.5199 7.25492C23.3217 6.35223 19.4817 6.93969 15.9999 8.86447C12.5229 6.93969 8.68294 6.35223 4.47995 7.25492C4.19816 7.31701 3.99756 7.56537 3.99756 7.85193V24.5158C3.99756 24.9266 4.38921 25.2131 4.78085 25.1033C8.92652 23.8997 13.908 25.0364 15.9952 26.8657C18.0823 25.0364 23.0686 23.8997 27.2095 25.1033C27.6011 25.2179 27.9928 24.9266 27.9928 24.5158V17.3612C27.1617 16.7212 26.474 15.871 26.0202 14.8489C25.6334 13.9701 25.4566 13.0483 25.471 12.1457V12.1361L25.4853 12.1313Z" fill="url(#paint1_radial_1626_9148)"/>
<path id="Vector_3" d="M16 26.8609C14.0705 23.8902 10.1397 22.486 6.67701 23.2311C6.32835 23.3075 5.99878 23.0448 5.99878 22.6914V5.83644C5.99878 5.55943 6.20415 5.3254 6.47639 5.28719C10.5313 4.6854 13.7552 5.97973 16 8.8645V26.8657V26.8609Z" fill="url(#paint2_linear_1626_9148)"/>
<path id="Vector_4" d="M22.8967 11.0233C22.8824 11.8878 23.0495 12.7666 23.422 13.6119C23.9761 14.868 24.8931 15.8472 26.0012 16.4824V22.6913C26.0012 23.0495 25.6716 23.3075 25.323 23.231C21.8603 22.486 17.9296 23.8901 16 26.8609V8.85969C18.2448 5.97014 21.4686 4.68059 25.5236 5.28238C25.7958 5.32059 26.0012 5.55462 26.0012 5.83164V6.97313C25.7719 7.03044 25.5475 7.10686 25.323 7.20238C24.086 7.74686 23.2597 8.83103 22.9922 10.0585C22.9922 10.0585 22.9922 10.0585 22.9922 10.0633C22.9349 10.3785 22.9062 10.6937 22.9015 11.0137V11.0233H22.8967Z" fill="url(#paint3_linear_1626_9148)"/>
</g>
<defs>
<radialGradient id="paint0_radial_1626_9148" cx="0" cy="0" r="1" gradientUnits="userSpaceOnUse" gradientTransform="translate(16.1624 -20.8669) scale(43.2)">
<stop stop-color="#1F0970"/>
<stop offset="1" stop-color="#1E1647"/>
</radialGradient>
<radialGradient id="paint1_radial_1626_9148" cx="0" cy="0" r="1" gradientUnits="userSpaceOnUse" gradientTransform="translate(15.9999 16.8501) scale(11.0519 11.0519)">
<stop stop-color="white" stop-opacity="0.9"/>
<stop offset="1" stop-color="white" stop-opacity="0.4"/>
</radialGradient>
<linearGradient id="paint2_linear_1626_9148" x1="6.00356" y1="16" x2="16" y2="16" gradientUnits="userSpaceOnUse">
<stop stop-color="white"/>
<stop offset="1" stop-color="white" stop-opacity="0.6"/>
</linearGradient>
<linearGradient id="paint3_linear_1626_9148" x1="16" y1="16" x2="26.0012" y2="16" gradientUnits="userSpaceOnUse">
<stop stop-color="white"/>
<stop offset="1" stop-color="white" stop-opacity="0.6"/>
</linearGradient>
<clipPath id="clip0_1626_9148">
<rect width="32" height="32" fill="white"/>
</clipPath>
</defs>
</svg>
