<svg width="75" height="18" viewBox="0 0 75 18" fill="none" xmlns="http://www.w3.org/2000/svg">
<g clip-path="url(#clip0_1033_8324)">
<path d="M46.3189 16.5528V14.1796H46.6113V15.2457C46.7099 15.0376 46.9178 14.9281 47.1644 14.9281C47.6013 14.9281 47.862 15.2822 47.862 15.7715C47.862 16.2607 47.5872 16.5893 47.1468 16.5893C46.9072 16.5893 46.7064 16.4797 46.6042 16.2643L46.5831 16.5528H46.3189ZM47.094 16.3155C47.3934 16.3155 47.5696 16.0818 47.5696 15.7569C47.5696 15.4319 47.3934 15.2019 47.094 15.2019C46.7945 15.2019 46.6148 15.4356 46.6148 15.7569C46.6148 16.0782 46.7945 16.3155 47.094 16.3155Z" fill="white"/>
<path d="M48.1368 14.4024C48.1368 14.2892 48.2249 14.2016 48.3306 14.2016C48.4362 14.2016 48.5243 14.2892 48.5243 14.4024C48.5243 14.5156 48.4362 14.6032 48.3306 14.6032C48.2249 14.6032 48.1368 14.5119 48.1368 14.4024ZM48.1861 14.9756H48.4785V16.5528H48.1861V14.9756Z" fill="white"/>
<path d="M49.6482 16.5382C49.5707 16.5711 49.4826 16.5857 49.3945 16.5857C49.1268 16.5857 48.9753 16.4287 48.9753 16.1074V15.2275H48.7392V14.9719H48.9753V14.4791H49.2677V14.9719H49.6235V15.2275H49.2677V16.0672C49.2677 16.2461 49.3487 16.3155 49.465 16.3155C49.5073 16.3155 49.5601 16.3046 49.6129 16.2863L49.6517 16.5382H49.6482Z" fill="white"/>
<path d="M49.8349 15.7642C49.8349 15.2713 50.1379 14.9281 50.5782 14.9281C51.0186 14.9281 51.2934 15.2384 51.2934 15.7058V15.8189H50.1167C50.1379 16.1548 50.307 16.3374 50.5959 16.3374C50.8213 16.3374 50.9728 16.2425 51.0222 16.0599H51.297C51.223 16.3994 50.9658 16.5893 50.5888 16.5893C50.1414 16.5893 49.8314 16.2534 49.8314 15.7642H49.8349ZM50.1273 15.6218H51.0045C51.0045 15.3589 50.839 15.1873 50.5818 15.1873C50.3246 15.1873 50.166 15.3443 50.1273 15.6218Z" fill="white"/>
<path d="M51.607 15.5634H52.5547V15.8336H51.607V15.5634Z" fill="white"/>
<path d="M53.1078 16.0928C53.1078 16.2534 53.2276 16.352 53.4179 16.352C53.6222 16.352 53.742 16.2644 53.742 16.1183C53.742 16.0125 53.6927 15.9467 53.5341 15.9066L53.2664 15.8409C52.9951 15.7715 52.8683 15.6327 52.8683 15.4027C52.8683 15.1106 53.1043 14.9281 53.4425 14.9281C53.7807 14.9281 53.9921 15.1216 53.9992 15.421H53.7173C53.7103 15.264 53.6081 15.1618 53.432 15.1618C53.2558 15.1618 53.1466 15.2457 53.1466 15.3918C53.1466 15.4977 53.2206 15.5707 53.3721 15.6072L53.6398 15.6766C53.897 15.7423 54.0273 15.8628 54.0273 16.1001C54.0273 16.3995 53.7772 16.5893 53.4179 16.5893C53.0585 16.5893 52.833 16.3922 52.833 16.0928H53.1149H53.1078Z" fill="white"/>
<path d="M54.2951 14.4024C54.2951 14.2892 54.3832 14.2016 54.4889 14.2016C54.5946 14.2016 54.6826 14.2892 54.6826 14.4024C54.6826 14.5156 54.5946 14.6032 54.4889 14.6032C54.3832 14.6032 54.2951 14.5119 54.2951 14.4024ZM54.3444 14.9756H54.6368V16.5528H54.3444V14.9756Z" fill="white"/>
<path d="M54.968 16.5528V16.3082L55.7889 15.2312H54.968V14.9756H56.1553V15.2239L55.3273 16.2972H56.1553V16.5528H54.968Z" fill="white"/>
<path d="M56.349 15.7642C56.349 15.2713 56.652 14.9281 57.0924 14.9281C57.5328 14.9281 57.8076 15.2384 57.8076 15.7058V15.8189H56.6309C56.652 16.1548 56.8211 16.3374 57.11 16.3374C57.3355 16.3374 57.487 16.2425 57.5363 16.0599H57.8111C57.7371 16.3994 57.4799 16.5893 57.103 16.5893C56.6555 16.5893 56.3455 16.2534 56.3455 15.7642H56.349ZM56.6379 15.6218H57.5152C57.5152 15.3589 57.3496 15.1873 57.0924 15.1873C56.8352 15.1873 56.6767 15.3443 56.6379 15.6218Z" fill="white"/>
<path d="M58.0366 15.7679C58.0366 15.2859 58.3079 14.9281 58.7588 14.9281C58.9913 14.9281 59.1886 15.034 59.2908 15.2275V14.176H59.5797V16.5492H59.319L59.2943 16.2608C59.1957 16.4762 58.9878 16.5857 58.7482 16.5857C58.3079 16.5857 58.0401 16.2425 58.0401 15.7642L58.0366 15.7679ZM59.2873 15.7606C59.2873 15.4393 59.1041 15.2056 58.8046 15.2056C58.5052 15.2056 58.3325 15.4393 58.3325 15.7606C58.3325 16.0819 58.5052 16.3192 58.8046 16.3192C59.1041 16.3192 59.2873 16.0892 59.2873 15.7606Z" fill="white"/>
<path d="M60.8586 16.5528V14.1796H61.151V16.5528H60.8586Z" fill="white"/>
<path d="M61.4821 15.7642C61.4821 15.2713 61.7851 14.9281 62.2255 14.9281C62.6659 14.9281 62.9407 15.2384 62.9407 15.7058V15.8189H61.764C61.7851 16.1548 61.9542 16.3374 62.2431 16.3374C62.4686 16.3374 62.6201 16.2425 62.6694 16.0599H62.9442C62.8702 16.3994 62.613 16.5893 62.2361 16.5893C61.7886 16.5893 61.4786 16.2534 61.4786 15.7642H61.4821ZM61.771 15.6218H62.6483C62.6483 15.3589 62.4827 15.1873 62.2255 15.1873C61.9683 15.1873 61.8098 15.3443 61.771 15.6218Z" fill="white"/>
<path d="M64.7198 14.9756V16.5528H64.4521L64.4274 16.2644C64.3252 16.4688 64.1279 16.593 63.8778 16.593C63.4304 16.593 63.1697 16.2315 63.1697 15.7496C63.1697 15.2676 63.448 14.9281 63.8849 14.9281C64.1174 14.9281 64.3393 15.0376 64.438 15.264L64.4591 14.9756H64.7163H64.7198ZM63.9412 15.2056C63.6418 15.2056 63.4656 15.4392 63.4656 15.7642C63.4656 16.0891 63.6382 16.3191 63.9377 16.3191C64.2372 16.3191 64.4204 16.0891 64.4204 15.7642C64.4204 15.4392 64.2407 15.2056 63.9412 15.2056Z" fill="white"/>
<path d="M66.0128 15.2385H65.8824C65.6041 15.2385 65.435 15.4137 65.435 15.7168V16.5529H65.1426V14.9793H65.4174L65.435 15.2166C65.4984 15.0523 65.6499 14.9427 65.8578 14.9427C65.9106 14.9427 65.9529 14.9501 66.0128 14.961V15.2385Z" fill="white"/>
<path d="M66.2876 16.5528V14.9756H66.5518L66.5835 15.2165C66.6787 15.0376 66.8724 14.9281 67.0873 14.9281C67.489 14.9281 67.6722 15.1837 67.6722 15.5853V16.5491H67.3797V15.651C67.3797 15.3334 67.2353 15.2019 67.0134 15.2019C66.7386 15.2019 66.58 15.4064 66.58 15.7131V16.5491H66.2876V16.5528Z" fill="white"/>
<path d="M68.028 14.4024C68.028 14.2892 68.1161 14.2016 68.2218 14.2016C68.3274 14.2016 68.4155 14.2892 68.4155 14.4024C68.4155 14.5156 68.3274 14.6032 68.2218 14.6032C68.1161 14.6032 68.028 14.5119 68.028 14.4024ZM68.0773 14.9756H68.3697V16.5528H68.0773V14.9756Z" fill="white"/>
<path d="M68.7925 16.5528V14.9756H69.0567L69.0884 15.2165C69.1835 15.0376 69.3773 14.9281 69.5922 14.9281C69.9938 14.9281 70.177 15.1837 70.177 15.5853V16.5491H69.8846V15.651C69.8846 15.3334 69.7402 15.2019 69.5182 15.2019C69.2434 15.2019 69.0849 15.4064 69.0849 15.7131V16.5491H68.7925V16.5528Z" fill="white"/>
<path d="M71.1952 14.9318C71.3256 14.9318 71.463 14.9683 71.5651 15.0231C71.6321 14.8916 71.7624 14.8149 71.9175 14.8149C71.9351 14.8149 71.9562 14.8149 71.9738 14.8149V15.0742C71.9492 15.0669 71.9316 15.0669 71.9104 15.0669C71.8153 15.0669 71.7448 15.0997 71.7026 15.1618C71.8012 15.2567 71.8681 15.4137 71.8681 15.5707C71.8681 15.9249 71.6004 16.1695 71.2093 16.1695C71.1001 16.1695 70.9979 16.1512 70.9099 16.1147C70.8147 16.122 70.7584 16.1695 70.7584 16.2461C70.7584 16.3338 70.8253 16.3739 70.9592 16.3739H71.4559C71.8082 16.3739 71.9914 16.52 71.9914 16.7938C71.9914 17.1151 71.692 17.3049 71.1741 17.3049C70.6562 17.3049 70.4554 17.1808 70.4554 16.9033C70.4554 16.7573 70.547 16.6404 70.6914 16.5893C70.5787 16.5455 70.5153 16.4542 70.5153 16.3265C70.5153 16.1804 70.6033 16.0709 70.7584 16.0271C70.621 15.9212 70.5399 15.7569 70.5399 15.5597C70.5399 15.1946 70.8147 14.9318 71.1952 14.9318ZM71.1811 17.053C71.537 17.053 71.7096 16.969 71.7096 16.8011C71.7096 16.677 71.6286 16.6222 71.4524 16.6222H70.9557C70.7901 16.6222 70.702 16.6916 70.702 16.8267C70.702 16.9909 70.8359 17.0567 71.1811 17.0567V17.053ZM71.2058 15.9248C71.4313 15.9248 71.5898 15.7752 71.5898 15.5525C71.5898 15.3297 71.4313 15.1727 71.2058 15.1727C70.9803 15.1727 70.8218 15.3261 70.8218 15.5525C70.8218 15.7788 70.9733 15.9248 71.2058 15.9248Z" fill="white"/>
<path d="M30.9019 5.48655V13.2194H28.7388L28.619 12.2299C28.1857 12.8178 27.3648 13.4348 26.1881 13.4348C23.965 13.4348 22.6826 11.6714 22.6826 9.22883C22.6826 6.7863 24.1306 5.23828 26.2057 5.23828C27.2661 5.23828 28.2632 5.71657 28.6824 6.42851L28.8022 5.48655H30.9055H30.9019ZM26.7659 7.41792C25.6772 7.41792 24.9903 8.20655 24.9903 9.34932C24.9903 10.4921 25.6772 11.2807 26.7659 11.2807C27.8545 11.2807 28.5873 10.5067 28.5873 9.34932C28.5873 8.19195 27.8404 7.41792 26.7659 7.41792Z" fill="white"/>
<path d="M31.8849 13.2194V5.48655H34.048L34.196 6.28977C34.6575 5.62529 35.5101 5.23828 36.4789 5.23828C38.2546 5.23828 39.2833 6.41389 39.2833 8.4402V13.2194H36.9863V9.01341C36.9863 8.03859 36.4649 7.40698 35.6722 7.40698C34.7632 7.40698 34.1784 8.024 34.1784 8.98422V13.2194H31.8813H31.8849Z" fill="white"/>
<path d="M39.4348 14.9354H40.7031C41.4782 14.9354 41.8058 14.6871 42.1053 13.8547L42.2392 13.4823L39.241 5.48657H41.7036L43.3313 10.4519L45.1351 5.48657H47.5237L43.7329 14.9025C43.1058 16.4797 42.2709 17.1442 40.9568 17.1442C40.4036 17.1442 39.8822 17.0675 39.4348 16.9288V14.9354Z" fill="white"/>
<path d="M58.6989 5.24561C56.2997 5.24561 54.5628 6.89222 54.5628 9.3457C54.5628 11.7992 56.3032 13.4312 58.6989 13.4312C61.0946 13.4312 62.8209 11.7992 62.8209 9.3457C62.8209 6.89222 61.0805 5.24561 58.6989 5.24561ZM58.6989 11.288C57.6208 11.288 56.8845 10.5104 56.8845 9.33108C56.8845 8.15181 57.6173 7.38874 58.6989 7.38874C59.7805 7.38874 60.4992 8.16641 60.4992 9.33108C60.4992 10.4958 59.7664 11.288 58.6989 11.288Z" fill="white"/>
<path d="M72.3226 5.47564L71.6039 8.00944C71.5299 8.29057 71.1705 9.65606 71.0789 10.2147C71.0049 9.71812 70.6456 8.27231 70.5681 8.00944L69.8635 5.47564H67.496L66.7315 8.00944C66.4003 9.09744 66.3263 9.39318 66.1924 10.2147C66.0727 9.437 65.9071 8.67757 65.7274 8.00944L65.0369 5.47564H62.6095L65.0228 13.2413H67.2705L67.9892 10.8171C68.4683 9.18506 68.6022 8.57901 68.6621 8.25407C68.7079 8.57901 68.9017 9.4954 69.2751 10.7696L69.9938 13.2377H72.1358L74.7605 5.47198H72.3155L72.3226 5.47564Z" fill="white"/>
<path d="M48.6546 4.69795V1.53253H46.3329V4.69795H47.5237H48.6546Z" fill="white"/>
<path d="M50.9482 5.22737C49.9723 5.22737 49.1197 5.61439 48.6546 6.28252V4.71625L48.2248 5.78964L46.3329 10.4921V13.245H48.6405V8.98791C48.6405 8.02404 49.2254 7.40338 50.1378 7.40338C50.9305 7.40338 51.4555 8.03865 51.4555 9.01712V13.2413H53.7631V8.44026C53.7631 6.40665 52.7273 5.22372 50.9446 5.22372L50.9482 5.22737Z" fill="white"/>
<path d="M17.1902 9.33841C17.1902 2.06926 16.1016 0.941101 9.08717 0.941101C2.07276 0.941101 0.984131 2.06926 0.984131 9.33841C0.984131 16.6076 2.07276 17.7357 9.08717 17.7357C16.1016 17.7357 17.1902 16.6076 17.1902 9.33841Z" fill="url(#paint0_radial_1033_8324)"/>
<path d="M13.8891 7.30844C13.8891 7.13319 13.9102 6.95795 13.9384 6.78635C14.0793 6.11822 14.5162 5.52309 15.1644 5.22371V5.06306C15.1644 4.91337 15.0623 4.78194 14.9214 4.74908C12.7934 4.27445 10.8487 4.58114 9.08717 5.59246C7.32564 4.58114 5.38091 4.27445 3.25298 4.74908C3.11206 4.78194 3.00989 4.91337 3.00989 5.06306V13.8109C3.00989 14.0263 3.20718 14.1796 3.408 14.1176C5.50774 13.486 8.03025 14.0847 9.08717 15.0413C10.1441 14.0811 12.6666 13.4823 14.7663 14.1176C14.9636 14.176 15.1644 14.0263 15.1644 13.8109V10.054C14.7452 9.71811 14.3964 9.27267 14.1674 8.73597C13.9701 8.27595 13.8821 7.79038 13.8891 7.31575C13.8891 7.31575 13.8891 7.31209 13.8891 7.30844Z" fill="url(#paint1_radial_1033_8324)"/>
<path d="M9.08717 15.0376C8.11129 13.4787 6.11723 12.7412 4.36627 13.1318C4.19012 13.172 4.02454 13.0332 4.02454 12.847V4.00066C4.02454 3.85462 4.12671 3.73415 4.26763 3.71224C6.32157 3.39826 7.95275 4.07368 9.09069 5.58884V15.0376H9.08717Z" fill="url(#paint2_linear_1033_8324)"/>
<path d="M12.5821 6.72794C12.575 7.18067 12.6596 7.64436 12.8463 8.08613C13.1281 8.74331 13.5932 9.2581 14.1533 9.59034V12.8507C14.1533 13.0369 13.9878 13.1756 13.8116 13.1355C12.0571 12.7448 10.0666 13.4823 9.0907 15.0413V5.59249C10.2286 4.07732 11.8598 3.39823 13.9138 3.71586C14.0512 3.73777 14.1569 3.85827 14.1569 4.00431V4.60308C14.0406 4.63229 13.9279 4.67243 13.8116 4.72354C13.1845 5.00832 12.7653 5.57789 12.6314 6.22047C12.6032 6.38477 12.5891 6.55271 12.5856 6.72066C12.5856 6.72066 12.5856 6.72429 12.5856 6.72794H12.5821Z" fill="url(#paint3_linear_1033_8324)"/>
</g>
<defs>
<radialGradient id="paint0_radial_1033_8324" cx="0" cy="0" r="1" gradientUnits="userSpaceOnUse" gradientTransform="translate(9.08717 -334.951) scale(0.176153 0.18255)">
<stop stop-color="#F2F2F2" stop-opacity="0.25"/>
<stop offset="0.59" stop-color="#FAFAFA" stop-opacity="0.37"/>
<stop offset="1" stop-color="white" stop-opacity="0.45"/>
</radialGradient>
<radialGradient id="paint1_radial_1033_8324" cx="0" cy="0" r="1" gradientUnits="userSpaceOnUse" gradientTransform="translate(9.08717 9.78382) scale(5.59814 5.80145)">
<stop stop-color="white" stop-opacity="0.9"/>
<stop offset="1" stop-color="white" stop-opacity="0.4"/>
</radialGradient>
<linearGradient id="paint2_linear_1033_8324" x1="4.02454" y1="9.33843" x2="9.08717" y2="9.33843" gradientUnits="userSpaceOnUse">
<stop stop-color="white"/>
<stop offset="1" stop-color="white" stop-opacity="0.6"/>
</linearGradient>
<linearGradient id="paint3_linear_1033_8324" x1="9.08718" y1="9.33842" x2="14.1533" y2="9.33842" gradientUnits="userSpaceOnUse">
<stop stop-color="white"/>
<stop offset="1" stop-color="white" stop-opacity="0.6"/>
</linearGradient>
<clipPath id="clip0_1033_8324">
<rect width="73.7764" height="16.7946" fill="white" transform="translate(0.984131 0.941101)"/>
</clipPath>
</defs>
</svg>
