<svg width="390" height="47" viewBox="0 0 390 47" fill="none" xmlns="http://www.w3.org/2000/svg">
<g clip-path="url(#clip0_1626_20437)">
<path d="M175.205 12.8997V34.0797H169.065L168.725 31.3697C167.495 32.9797 165.165 34.6697 161.825 34.6697C155.515 34.6697 151.875 29.8397 151.875 23.1497C151.875 16.4597 155.985 12.2197 161.875 12.2197C164.885 12.2197 167.715 13.5297 168.905 15.4797L169.245 12.8997H175.215H175.205ZM163.475 18.1897C160.385 18.1897 158.435 20.3497 158.435 23.4797C158.435 26.6097 160.385 28.7697 163.475 28.7697C166.565 28.7697 168.645 26.6497 168.645 23.4797C168.645 20.3097 166.525 18.1897 163.475 18.1897Z" fill="white"/>
<path d="M178.004 34.0797V12.8997H184.144L184.564 15.0997C185.874 13.2797 188.294 12.2197 191.044 12.2197C196.084 12.2197 199.004 15.4397 199.004 20.9897V34.0797H192.484V22.5597C192.484 19.8897 191.004 18.1597 188.754 18.1597C186.174 18.1597 184.514 19.8497 184.514 22.4797V34.0797H177.994H178.004Z" fill="white"/>
<path d="M199.435 38.7794H203.035C205.235 38.7794 206.165 38.0994 207.015 35.8194L207.395 34.7994L198.885 12.8994H205.875L210.495 26.4994L215.615 12.8994H222.395L211.635 38.6894C209.855 43.0094 207.485 44.8294 203.755 44.8294C202.185 44.8294 200.705 44.6194 199.435 44.2394V38.7794Z" fill="white"/>
<path d="M254.115 12.2393C247.305 12.2393 242.375 16.7493 242.375 23.4693C242.375 30.1893 247.315 34.6593 254.115 34.6593C260.915 34.6593 265.815 30.1893 265.815 23.4693C265.815 16.7493 260.875 12.2393 254.115 12.2393ZM254.115 28.7893C251.055 28.7893 248.965 26.6593 248.965 23.4293C248.965 20.1993 251.045 18.1093 254.115 18.1093C257.185 18.1093 259.225 20.2393 259.225 23.4293C259.225 26.6193 257.145 28.7893 254.115 28.7893Z" fill="white"/>
<path d="M292.785 12.8694L290.745 19.8094C290.535 20.5794 289.515 24.3194 289.255 25.8494C289.045 24.4894 288.025 20.5294 287.805 19.8094L285.805 12.8694H279.085L276.915 19.8094C275.975 22.7894 275.765 23.5994 275.385 25.8494C275.045 23.7194 274.575 21.6394 274.065 19.8094L272.105 12.8694H265.215L272.065 34.1394H278.445L280.485 27.4994C281.845 23.0294 282.225 21.3694 282.395 20.4794C282.525 21.3694 283.075 23.8794 284.135 27.3694L286.175 34.1294H292.255L299.705 12.8594H292.765L292.785 12.8694Z" fill="white"/>
<path d="M225.606 10.7393V2.06934H219.016V10.7393H222.386H225.606Z" fill="white"/>
<path d="M232.116 12.189C229.346 12.189 226.926 13.249 225.606 15.079V10.7891L224.386 13.7291L219.016 26.609V34.149H225.566V22.489C225.566 19.849 227.226 18.149 229.816 18.149C232.066 18.149 233.556 19.889 233.556 22.569V34.139H240.106V20.989C240.106 15.419 237.166 12.179 232.106 12.179L232.116 12.189Z" fill="white"/>
<path d="M136.295 23.4492C136.295 3.53922 133.205 0.449219 113.295 0.449219C93.3849 0.449219 90.2949 3.53922 90.2949 23.4492C90.2949 43.3592 93.3849 46.4492 113.295 46.4492C133.205 46.4492 136.295 43.3592 136.295 23.4492Z" fill="url(#paint0_radial_1626_20437)"/>
<path d="M126.925 17.8896C126.925 17.4096 126.985 16.9296 127.065 16.4596C127.465 14.6296 128.705 12.9995 130.545 12.1795V11.7395C130.545 11.3295 130.255 10.9696 129.855 10.8796C123.815 9.57956 118.295 10.4196 113.295 13.1896C108.295 10.4196 102.775 9.57956 96.7349 10.8796C96.3349 10.9696 96.0449 11.3295 96.0449 11.7395V35.6996C96.0449 36.2896 96.6049 36.7096 97.1749 36.5396C103.135 34.8096 110.295 36.4496 113.295 39.0696C116.295 36.4396 123.455 34.7996 129.415 36.5396C129.975 36.6996 130.545 36.2896 130.545 35.6996V25.4096C129.355 24.4896 128.365 23.2695 127.715 21.7995C127.155 20.5395 126.905 19.2096 126.925 17.9096C126.925 17.9096 126.925 17.8996 126.925 17.8896Z" fill="url(#paint1_radial_1626_20437)"/>
<path d="M113.296 39.0593C110.526 34.7893 104.866 32.7694 99.8958 33.8394C99.3958 33.9494 98.9258 33.5693 98.9258 33.0593V8.82934C98.9258 8.42934 99.2158 8.09937 99.6158 8.03937C105.446 7.17937 110.076 9.02932 113.306 13.1793V39.0593H113.296Z" fill="url(#paint2_linear_1626_20437)"/>
<path d="M123.205 16.2996C123.185 17.5396 123.425 18.8096 123.955 20.0196C124.755 21.8196 126.075 23.2296 127.665 24.1396V33.0696C127.665 33.5796 127.195 33.9596 126.695 33.8496C121.715 32.7796 116.065 34.7996 113.295 39.0696V13.1896C116.525 9.03961 121.155 7.1796 126.985 8.0496C127.375 8.1096 127.675 8.43964 127.675 8.83964V10.4797C127.345 10.5597 127.025 10.6696 126.695 10.8096C124.915 11.5896 123.725 13.1496 123.345 14.9096C123.265 15.3596 123.225 15.8196 123.215 16.2796C123.215 16.2796 123.215 16.2896 123.215 16.2996H123.205Z" fill="url(#paint3_linear_1626_20437)"/>
</g>
<defs>
<radialGradient id="paint0_radial_1626_20437" cx="0" cy="0" r="1" gradientUnits="userSpaceOnUse" gradientTransform="translate(113.295 23.4492) scale(23)">
<stop stop-color="#F2F2F2" stop-opacity="0.25"/>
<stop offset="0.59" stop-color="#FAFAFA" stop-opacity="0.37"/>
<stop offset="1" stop-color="white" stop-opacity="0.45"/>
</radialGradient>
<radialGradient id="paint1_radial_1626_20437" cx="0" cy="0" r="1" gradientUnits="userSpaceOnUse" gradientTransform="translate(113.295 24.6696) scale(15.89 15.89)">
<stop stop-color="white" stop-opacity="0.9"/>
<stop offset="1" stop-color="white" stop-opacity="0.4"/>
</radialGradient>
<linearGradient id="paint2_linear_1626_20437" x1="98.9258" y1="23.4493" x2="113.296" y2="23.4493" gradientUnits="userSpaceOnUse">
<stop stop-color="white"/>
<stop offset="1" stop-color="white" stop-opacity="0.6"/>
</linearGradient>
<linearGradient id="paint3_linear_1626_20437" x1="113.295" y1="23.4496" x2="127.675" y2="23.4496" gradientUnits="userSpaceOnUse">
<stop stop-color="white"/>
<stop offset="1" stop-color="white" stop-opacity="0.6"/>
</linearGradient>
<clipPath id="clip0_1626_20437">
<rect width="209.41" height="46" fill="white" transform="translate(90.2949 0.449219)"/>
</clipPath>
</defs>
</svg>
