<svg width="146" height="32" viewBox="0 0 146 32" fill="none" xmlns="http://www.w3.org/2000/svg">
<g id="Logo" clip-path="url(#clip0_1033_2492)">
<g id="Group">
<path id="Vector" d="M32 16C32 2.14957 29.8504 0 16 0C2.14957 0 0 2.14957 0 16C0 29.8504 2.14957 32 16 32C29.8504 32 32 29.8504 32 16Z" fill="url(#paint0_radial_1033_2492)"/>
<path id="Vector_2" d="M25.4817 12.1322C25.4817 11.7983 25.5235 11.4644 25.5791 11.1374C25.8574 9.86439 26.72 8.73048 28 8.16004V7.85395C28 7.56874 27.7983 7.3183 27.52 7.25569C23.3183 6.35134 19.4783 6.9357 16 8.86266C12.5217 6.9357 8.68174 6.35134 4.48 7.25569C4.20174 7.3183 4 7.56874 4 7.85395V24.5218C4 24.9322 4.38957 25.2244 4.78609 25.1061C8.93218 23.9027 13.913 25.0435 16 26.8661C18.087 25.0366 23.0678 23.8957 27.2139 25.1061C27.6035 25.2174 28 24.9322 28 24.5218V17.3635C27.1722 16.7235 26.4835 15.8748 26.0313 14.8522C25.6417 13.9757 25.4678 13.0505 25.4817 12.1461C25.4817 12.1461 25.4817 12.1392 25.4817 12.1322Z" fill="url(#paint1_radial_1033_2492)"/>
<path id="Vector_3" d="M16 26.8592C14.073 23.8887 10.1357 22.4835 6.67826 23.2279C6.33044 23.3044 6.00348 23.04 6.00348 22.6852V5.8296C6.00348 5.55134 6.20522 5.32176 6.48348 5.28003C10.5391 4.68176 13.76 5.96872 16.007 8.85568V26.8592H16Z" fill="url(#paint2_linear_1033_2492)"/>
<path id="Vector_4" d="M22.8939 11.026C22.88 11.8886 23.047 12.7721 23.4157 13.6139C23.9722 14.866 24.8904 15.8469 25.9965 16.4799V22.6921C25.9965 23.0469 25.6696 23.3112 25.3218 23.2347C21.8574 22.4904 17.927 23.8956 16 26.866V8.86256C18.247 5.9756 21.4678 4.68169 25.5235 5.28691C25.7948 5.32865 26.0035 5.55821 26.0035 5.83647V6.97734C25.7739 7.03299 25.5513 7.10951 25.3218 7.2069C24.0835 7.74951 23.2556 8.83473 22.9913 10.0591C22.9356 10.3721 22.9078 10.6921 22.9009 11.0121C22.9009 11.0121 22.9009 11.0191 22.9009 11.026H22.8939Z" fill="url(#paint3_linear_1033_2492)"/>
</g>
<g id="Group_2">
<g id="Group_3">
<path id="Vector_5" d="M59.0678 8.59829V23.3322H54.7965L54.56 21.447C53.7043 22.567 52.0835 23.7426 49.76 23.7426C45.3704 23.7426 42.8383 20.3826 42.8383 15.7287C42.8383 11.0748 45.6974 8.12524 49.7948 8.12524C51.8887 8.12524 53.8574 9.03656 54.6852 10.3931L54.9217 8.59829H59.0748H59.0678ZM50.9078 12.2783C48.7582 12.2783 47.4017 13.7809 47.4017 15.9583C47.4017 18.1357 48.7582 19.6383 50.9078 19.6383C53.0574 19.6383 54.5043 18.1635 54.5043 15.9583C54.5043 13.7531 53.0295 12.2783 50.9078 12.2783Z" fill="#32D430"/>
<path id="Vector_6" d="M61.0156 23.3252V8.59134H65.2869L65.5791 10.1218C66.4904 8.85568 68.1739 8.11829 70.0869 8.11829C73.593 8.11829 75.6243 10.3583 75.6243 14.2192V23.3252H71.0887V15.3113C71.0887 13.4539 70.0591 12.2505 68.4939 12.2505C66.6991 12.2505 65.5443 13.4261 65.5443 15.2557V23.3252H61.0087H61.0156Z" fill="#32D430"/>
<path id="Vector_7" d="M75.9235 26.6017H78.4278C79.9583 26.6017 80.6052 26.1287 81.1966 24.5426L81.4609 23.833L75.5409 8.59827H80.4035L83.6174 18.0591L87.1791 8.59827H91.8956L84.4105 26.5391C83.1722 29.5443 81.5235 30.8104 78.9287 30.8104C77.8365 30.8104 76.807 30.6644 75.9235 30.4V26.6017Z" fill="#32D430"/>
</g>
<g id="Group_4">
<path id="Vector_8" d="M113.962 8.13916C109.224 8.13916 105.795 11.2765 105.795 15.9513C105.795 20.6261 109.231 23.7357 113.962 23.7357C118.692 23.7357 122.101 20.6261 122.101 15.9513C122.101 11.2765 118.664 8.13916 113.962 8.13916ZM113.962 19.6522C111.833 19.6522 110.379 18.1705 110.379 15.9235C110.379 13.6766 111.826 12.2226 113.962 12.2226C116.097 12.2226 117.517 13.7044 117.517 15.9235C117.517 18.1426 116.07 19.6522 113.962 19.6522Z" fill="#1E1647"/>
<path id="Vector_9" d="M140.863 8.57739L139.443 13.4052C139.297 13.9409 138.588 16.5426 138.407 17.6069C138.261 16.6609 137.551 13.9061 137.398 13.4052L136.007 8.57739H131.332L129.823 13.4052C129.169 15.4783 129.023 16.0417 128.758 17.6069C128.522 16.1252 128.195 14.6783 127.84 13.4052L126.477 8.57739H121.683L126.449 23.3739H130.887L132.306 18.7548C133.252 15.6452 133.517 14.4904 133.635 13.8713C133.725 14.4904 134.108 16.2365 134.845 18.6643L136.264 23.3669H140.494L145.677 8.57043H140.849L140.863 8.57739Z" fill="#1E1647"/>
<path id="Vector_10" d="M94.1287 7.09563V1.06433H89.5444V7.09563H91.8887H94.1287Z" fill="#1E1647"/>
<path id="Vector_11" d="M98.6574 8.10428C96.7304 8.10428 95.047 8.84167 94.1287 10.1147V7.13037L93.28 9.17559L89.5444 18.1356V23.3808H94.1009V15.2695C94.1009 13.433 95.2557 12.2504 97.0574 12.2504C98.6226 12.2504 99.6591 13.4608 99.6591 15.3252V23.3739H104.216V14.226C104.216 10.3512 102.17 8.09733 98.6504 8.09733L98.6574 8.10428Z" fill="#1E1647"/>
</g>
</g>
</g>
<defs>
<radialGradient id="paint0_radial_1033_2492" cx="0" cy="0" r="1" gradientUnits="userSpaceOnUse" gradientTransform="translate(16.16 -20.8696) scale(43.2)">
<stop stop-color="#1F0970"/>
<stop offset="1" stop-color="#1E1647"/>
</radialGradient>
<radialGradient id="paint1_radial_1033_2492" cx="0" cy="0" r="1" gradientUnits="userSpaceOnUse" gradientTransform="translate(16 16.8487) scale(11.0539)">
<stop stop-color="white" stop-opacity="0.9"/>
<stop offset="1" stop-color="white" stop-opacity="0.4"/>
</radialGradient>
<linearGradient id="paint2_linear_1033_2492" x1="6.00348" y1="16" x2="16" y2="16" gradientUnits="userSpaceOnUse">
<stop stop-color="white"/>
<stop offset="1" stop-color="white" stop-opacity="0.6"/>
</linearGradient>
<linearGradient id="paint3_linear_1033_2492" x1="16" y1="15.9999" x2="26.0035" y2="15.9999" gradientUnits="userSpaceOnUse">
<stop stop-color="white"/>
<stop offset="1" stop-color="white" stop-opacity="0.6"/>
</linearGradient>
<clipPath id="clip0_1033_2492">
<rect width="145.677" height="32" fill="white"/>
</clipPath>
</defs>
</svg>
